<svg width="40px" height="23px" viewBox="0 0 40 23" version="1.1" xmlns="http://www.w3.org/2000/svg" xmlns:xlink="http://www.w3.org/1999/xlink">
    <g id="Welcome" stroke="none" stroke-width="1" fill="none" fill-rule="evenodd">
        <g id="Home-Screen" transform="translate(-686.000000, -1110.000000)" fill="#FFFFFF">
            <g id="Intro-View" transform="translate(0.000000, 89.000000)">
                <g id="Downproj" transform="translate(686.000000, 1017.000000)">
                    <g id="_ionicons_svg_ios-arrow-down" transform="translate(0.000000, 4.000000)">
                        <path d="M20,16.0833333 L35.1190476,0.952380952 C36.2380952,-0.166666667 38.047619,-0.166666667 39.1547619,0.952380952 C40.2619048,2.07142857 40.2619048,3.88095238 39.1547619,5 L22.0238095,22.1428571 C20.9404762,23.2261905 19.202381,23.25 18.0833333,22.2261905 L0.833333333,5.01190476 C0.273809524,4.45238095 0,3.71428571 0,2.98809524 C0,2.26190476 0.273809524,1.52380952 0.833333333,0.964285714 C1.95238095,-0.154761905 3.76190476,-0.154761905 4.86904762,0.964285714 L20,16.0833333 Z" id="Path"></path>
                        <path d="M20.0037216,7.98809081 L27.5660588,0.419799032 C28.1257908,-0.139933011 29.0308895,-0.139933011 29.5846669,0.419799032 C30.1384444,0.979531076 30.1384444,1.8846297 29.5846669,2.44436174 L21.016003,11.0189803 C20.4741347,11.5608485 19.6047637,11.5727577 19.0450316,11.0606624 L10.4168217,2.45031634 C10.1369557,2.17045032 10,1.80126535 10,1.43803498 C10,1.07480461 10.1369557,0.70561965 10.4168217,0.425753629 C10.9765538,-0.133978415 11.8816524,-0.133978415 12.4354298,0.425753629 L20.0037216,7.98809081 Z" id="Path"></path>
                    </g>
                </g>
            </g>
        </g>
    </g>
</svg>